PathFileType	4	(X/Y/Z)	C:\Users\italobelli\Desktop\GitHub\PTbot_officialCBL\Personal_Results\SHRUG03_noisy1.trc
DataRate	CameraRate	NumFrames	NumMarkers	Units	OrigDataRate	OrigDataStartFrame	OrigNumFrames
110.888889	110.888889	42	9	m	110.888889	313	500
Frame#	Time		gu		centelbow		EpL		centpxt8		centijc7		ts		aa		ai		ij
			X1	Y1	Z1	X2	Y2	Z2	X3	Y3	Z3	X4	Y4	Z4	X5	Y5	Z5	X6	Y6	Z6	X7	Y7	Z7	X8	Y8	Z8	X9	Y9	Z9

313	2.8136	-0.083443	-0.013507	0.16558	-0.12332	-0.25201	0.19157	-0.10434	-0.24687	0.21715	-0.046816	-0.15316	-0.008669	-0.046816	0.031938	-0.008669	-0.13818	0.029719	0.053444	-0.1099	0.024494	0.16918	-0.15927	-0.081688	0.058687	0	0	0
314	2.8226	-0.083468	-0.013541	0.16552	-0.12346	-0.25209	0.1916	-0.10448	-0.24695	0.21719	-0.046816	-0.15316	-0.008669	-0.046816	0.031938	-0.008669	-0.1382	0.029731	0.053419	-0.10991	0.024484	0.16916	-0.15928	-0.081678	0.058657	0	0	0
315	2.8317	-0.083491	-0.013573	0.16545	-0.1236	-0.25217	0.19164	-0.10461	-0.24703	0.21722	-0.046816	-0.15316	-0.008669	-0.046816	0.031938	-0.008669	-0.13821	0.029744	0.053396	-0.10993	0.024476	0.16914	-0.15929	-0.081667	0.058628	0	0	0
316	2.8407	-0.083513	-0.013603	0.16539	-0.12374	-0.25225	0.19169	-0.10475	-0.24711	0.21726	-0.046816	-0.15316	-0.008669	-0.046816	0.031938	-0.008669	-0.13822	0.029757	0.053373	-0.10994	0.024468	0.16911	-0.1593	-0.081655	0.058601	0	0	0
317	2.8497	-0.083534	-0.013631	0.16533	-0.12388	-0.25232	0.19173	-0.10489	-0.24718	0.2173	-0.046816	-0.15316	-0.008669	-0.046816	0.031938	-0.008669	-0.13823	0.029771	0.053352	-0.10995	0.024462	0.16909	-0.1593	-0.081642	0.058576	0	0	0
318	2.8587	-0.083553	-0.013656	0.16527	-0.12403	-0.25239	0.19178	-0.10503	-0.24725	0.21735	-0.046816	-0.15316	-0.008669	-0.046816	0.031938	-0.008669	-0.13824	0.029786	0.053331	-0.10997	0.024458	0.16907	-0.15931	-0.081628	0.058552	0	0	0
319	2.8677	-0.083571	-0.013679	0.16522	-0.12417	-0.25245	0.19184	-0.10517	-0.24731	0.2174	-0.046816	-0.15316	-0.008669	-0.046816	0.031938	-0.008669	-0.13824	0.029801	0.053312	-0.10998	0.024454	0.16905	-0.15932	-0.081614	0.05853	0	0	0
320	2.8768	-0.083588	-0.0137	0.16516	-0.12432	-0.25251	0.19189	-0.10531	-0.24737	0.21745	-0.046816	-0.15316	-0.008669	-0.046816	0.031938	-0.008669	-0.13825	0.029817	0.053293	-0.10999	0.024453	0.16903	-0.15932	-0.081599	0.05851	0	0	0
321	2.8858	-0.083603	-0.013719	0.16511	-0.12447	-0.25257	0.19196	-0.10546	-0.24743	0.21751	-0.046816	-0.15316	-0.008669	-0.046816	0.031938	-0.008669	-0.13826	0.029834	0.053277	-0.11	0.024452	0.16902	-0.15933	-0.081582	0.058491	0	0	0
322	2.8948	-0.083617	-0.013735	0.16506	-0.12462	-0.25262	0.19202	-0.1056	-0.24748	0.21757	-0.046816	-0.15316	-0.008669	-0.046816	0.031938	-0.008669	-0.13827	0.029851	0.053261	-0.11001	0.024453	0.169	-0.15934	-0.081566	0.058474	0	0	0
323	2.9038	-0.08363	-0.013749	0.16502	-0.12477	-0.25267	0.19209	-0.10575	-0.24753	0.21764	-0.046816	-0.15316	-0.008669	-0.046816	0.031938	-0.008669	-0.13827	0.02987	0.053247	-0.11002	0.024455	0.16899	-0.15935	-0.081548	0.058459	0	0	0
324	2.9128	-0.083641	-0.01376	0.16497	-0.12493	-0.25271	0.19216	-0.1059	-0.24757	0.21771	-0.046816	-0.15316	-0.008669	-0.046816	0.031938	-0.008669	-0.13828	0.029888	0.053234	-0.11003	0.024459	0.16898	-0.15935	-0.081529	0.058445	0	0	0
325	2.9218	-0.083651	-0.013769	0.16494	-0.12509	-0.25275	0.19224	-0.10606	-0.24761	0.21778	-0.046816	-0.15316	-0.008669	-0.046816	0.031938	-0.008669	-0.13828	0.029908	0.053223	-0.11004	0.024465	0.16897	-0.15936	-0.08151	0.058434	0	0	0
326	2.9309	-0.083659	-0.013776	0.1649	-0.12525	-0.25278	0.19232	-0.10622	-0.24765	0.21786	-0.046816	-0.15316	-0.008669	-0.046816	0.031938	-0.008669	-0.13829	0.029928	0.053214	-0.11005	0.024472	0.16896	-0.15937	-0.08149	0.058424	0	0	0
327	2.9399	-0.083666	-0.01378	0.16487	-0.12541	-0.25281	0.1924	-0.10638	-0.24769	0.21794	-0.046816	-0.15316	-0.008669	-0.046816	0.031938	-0.008669	-0.13829	0.029948	0.053207	-0.11006	0.02448	0.16895	-0.15938	-0.081469	0.058416	0	0	0
328	2.9489	-0.083672	-0.013782	0.16484	-0.12558	-0.25284	0.19249	-0.10654	-0.24772	0.21802	-0.046816	-0.15316	-0.008669	-0.046816	0.031938	-0.008669	-0.1383	0.02997	0.053201	-0.11007	0.02449	0.16895	-0.15938	-0.081447	0.058409	0	0	0
329	2.9579	-0.083676	-0.013781	0.16482	-0.12575	-0.25286	0.19258	-0.10671	-0.24774	0.21811	-0.046816	-0.15316	-0.008669	-0.046816	0.031938	-0.008669	-0.1383	0.029992	0.053198	-0.11007	0.024501	0.16894	-0.15939	-0.081425	0.058405	0	0	0
330	2.9669	-0.083678	-0.013777	0.1648	-0.12593	-0.25288	0.19268	-0.10688	-0.24776	0.2182	-0.046816	-0.15316	-0.008669	-0.046816	0.031938	-0.008669	-0.1383	0.030014	0.053196	-0.11008	0.024514	0.16894	-0.1594	-0.081402	0.058402	0	0	0
331	2.976	-0.083679	-0.013771	0.16478	-0.1261	-0.25289	0.19278	-0.10706	-0.24778	0.2183	-0.046816	-0.15316	-0.008669	-0.046816	0.031938	-0.008669	-0.13831	0.030037	0.053197	-0.11009	0.024529	0.16894	-0.15941	-0.081378	0.058401	0	0	0
332	2.985	-0.083679	-0.013762	0.16478	-0.12629	-0.2529	0.19288	-0.10724	-0.2478	0.2184	-0.046816	-0.15316	-0.008669	-0.046816	0.031938	-0.008669	-0.13831	0.030061	0.0532	-0.11009	0.024545	0.16895	-0.15942	-0.081353	0.058402	0	0	0
333	2.994	-0.083677	-0.013751	0.16477	-0.12647	-0.2529	0.19299	-0.10742	-0.24781	0.2185	-0.046816	-0.15316	-0.008669	-0.046816	0.031938	-0.008669	-0.13831	0.030085	0.053205	-0.1101	0.024563	0.16895	-0.15942	-0.081327	0.058405	0	0	0
334	3.003	-0.083674	-0.013737	0.16477	-0.12666	-0.2529	0.1931	-0.10761	-0.24781	0.21861	-0.046816	-0.15316	-0.008669	-0.046816	0.031938	-0.008669	-0.13831	0.03011	0.053213	-0.1101	0.024583	0.16896	-0.15943	-0.081301	0.05841	0	0	0
335	3.012	-0.08367	-0.013722	0.16477	-0.12686	-0.25289	0.19321	-0.10781	-0.24782	0.21872	-0.046816	-0.15316	-0.008669	-0.046816	0.031938	-0.008669	-0.13831	0.030136	0.053221	-0.11011	0.024603	0.16897	-0.15944	-0.081274	0.058415	0	0	0
336	3.021	-0.083666	-0.013707	0.16478	-0.12707	-0.25289	0.19334	-0.10802	-0.24782	0.21884	-0.046816	-0.15316	-0.008669	-0.046816	0.031938	-0.008669	-0.13831	0.030163	0.05323	-0.11011	0.024624	0.16898	-0.15945	-0.081246	0.05842	0	0	0
337	3.0301	-0.083661	-0.013692	0.16478	-0.12728	-0.25288	0.19347	-0.10823	-0.24782	0.21897	-0.046816	-0.15316	-0.008669	-0.046816	0.031938	-0.008669	-0.13831	0.03019	0.053238	-0.11012	0.024646	0.16899	-0.15946	-0.081217	0.058426	0	0	0
338	3.0391	-0.083657	-0.013676	0.16479	-0.1275	-0.25287	0.1936	-0.10845	-0.24782	0.2191	-0.046816	-0.15316	-0.008669	-0.046816	0.031938	-0.008669	-0.13831	0.030218	0.053248	-0.11012	0.024669	0.169	-0.15947	-0.081187	0.058432	0	0	0
339	3.0481	-0.083652	-0.013661	0.1648	-0.12773	-0.25286	0.19374	-0.10867	-0.24781	0.21924	-0.046816	-0.15316	-0.008669	-0.046816	0.031938	-0.008669	-0.13831	0.030247	0.053257	-0.11013	0.024692	0.16901	-0.15948	-0.081157	0.058438	0	0	0
340	3.0571	-0.083648	-0.013644	0.16481	-0.12796	-0.25284	0.19389	-0.1089	-0.24781	0.21939	-0.046816	-0.15316	-0.008669	-0.046816	0.031938	-0.008669	-0.13831	0.030276	0.053267	-0.11013	0.024716	0.16902	-0.15949	-0.081126	0.058444	0	0	0
341	3.0661	-0.083643	-0.013628	0.16482	-0.1282	-0.25283	0.19404	-0.10914	-0.2478	0.21954	-0.046816	-0.15316	-0.008669	-0.046816	0.031938	-0.008669	-0.13831	0.030306	0.053277	-0.11014	0.02474	0.16903	-0.1595	-0.081094	0.05845	0	0	0
342	3.0752	-0.083638	-0.013611	0.16484	-0.12845	-0.25281	0.1942	-0.10938	-0.2478	0.21969	-0.046816	-0.15316	-0.008669	-0.046816	0.031938	-0.008669	-0.13832	0.030337	0.053287	-0.11014	0.024765	0.16905	-0.15951	-0.081062	0.058457	0	0	0
343	3.0842	-0.083633	-0.013595	0.16485	-0.12869	-0.25279	0.19436	-0.10963	-0.24779	0.21986	-0.046816	-0.15316	-0.008669	-0.046816	0.031938	-0.008669	-0.13832	0.030368	0.053297	-0.11015	0.02479	0.16906	-0.15952	-0.081029	0.058463	0	0	0
344	3.0932	-0.083627	-0.013578	0.16487	-0.12895	-0.25277	0.19453	-0.10988	-0.24778	0.22002	-0.046816	-0.15316	-0.008669	-0.046816	0.031938	-0.008669	-0.13832	0.030399	0.053308	-0.11015	0.024815	0.16907	-0.15953	-0.080995	0.05847	0	0	0
345	3.1022	-0.083622	-0.01356	0.16488	-0.1292	-0.25275	0.1947	-0.11013	-0.24777	0.22019	-0.046816	-0.15316	-0.008669	-0.046816	0.031938	-0.008669	-0.13832	0.030431	0.053318	-0.11016	0.024841	0.16908	-0.15954	-0.080961	0.058477	0	0	0
346	3.1112	-0.083616	-0.013543	0.1649	-0.12946	-0.25273	0.19487	-0.11039	-0.24776	0.22036	-0.046816	-0.15316	-0.008669	-0.046816	0.031938	-0.008669	-0.13832	0.030464	0.053329	-0.11016	0.024867	0.16909	-0.15956	-0.080927	0.058484	0	0	0
347	3.1202	-0.083611	-0.013526	0.16492	-0.12973	-0.2527	0.19505	-0.11065	-0.24775	0.22054	-0.046816	-0.15316	-0.008669	-0.046816	0.031938	-0.008669	-0.13832	0.030496	0.05334	-0.11017	0.024894	0.1691	-0.15957	-0.080892	0.05849	0	0	0
348	3.1293	-0.083605	-0.013508	0.16494	-0.12999	-0.25268	0.19523	-0.11092	-0.24774	0.22072	-0.046816	-0.15316	-0.008669	-0.046816	0.031938	-0.008669	-0.13832	0.030529	0.053351	-0.11018	0.024921	0.16912	-0.15958	-0.080857	0.058497	0	0	0
349	3.1383	-0.083599	-0.01349	0.16496	-0.13026	-0.25265	0.19541	-0.11118	-0.24772	0.2209	-0.046816	-0.15316	-0.008669	-0.046816	0.031938	-0.008669	-0.13832	0.030563	0.053362	-0.11018	0.024948	0.16913	-0.15959	-0.080822	0.058504	0	0	0
350	3.1473	-0.083594	-0.013473	0.16498	-0.13053	-0.25263	0.19559	-0.11145	-0.24771	0.22109	-0.046816	-0.15316	-0.008669	-0.046816	0.031938	-0.008669	-0.13832	0.030596	0.053374	-0.11019	0.024975	0.16914	-0.1596	-0.080787	0.058512	0	0	0
351	3.1563	-0.083588	-0.013455	0.165	-0.1308	-0.2526	0.19578	-0.11172	-0.2477	0.22127	-0.046816	-0.15316	-0.008669	-0.046816	0.031938	-0.008669	-0.13832	0.030629	0.053385	-0.11019	0.025002	0.16915	-0.15961	-0.080751	0.058519	0	0	0
352	3.1653	-0.083582	-0.013437	0.16502	-0.13108	-0.25258	0.19597	-0.11199	-0.24768	0.22146	-0.046816	-0.15316	-0.008669	-0.046816	0.031938	-0.008669	-0.13832	0.030663	0.053397	-0.1102	0.025029	0.16916	-0.15962	-0.080716	0.058526	0	0	0
353	3.1743	-0.083576	-0.013419	0.16505	-0.13135	-0.25255	0.19616	-0.11226	-0.24767	0.22165	-0.046816	-0.15316	-0.008669	-0.046816	0.031938	-0.008669	-0.13832	0.030697	0.053408	-0.11021	0.025057	0.16918	-0.15964	-0.08068	0.058533	0	0	0
354	3.1834	-0.08357	-0.013401	0.16507	-0.13162	-0.25252	0.19635	-0.11253	-0.24765	0.22184	-0.046816	-0.15316	-0.008669	-0.046816	0.031938	-0.008669	-0.13832	0.03073	0.05342	-0.11021	0.025084	0.16919	-0.15965	-0.080644	0.05854	0	0	0
